<svg style="display: none;" xmlns="http://www.w3.org/2000/svg">
 <symbol id="contact-tel" viewbox="0 0 50 50">
   <g>
<path d="M24.9742 23.4239C24.9742 23.6129 25.1278 23.7614 25.3156 23.7614C25.7047 23.7614 26.0188 24.0753 26.0188 24.4566C26.0188 24.6423 26.1724 24.7941 26.3602 24.7941C26.5479 24.7941 26.7016 24.6423 26.7016 24.4566C26.7016 23.7006 26.0802 23.0864 25.3156 23.0864C25.1278 23.0864 24.9742 23.2383 24.9742 23.4239ZM30.5318 24.7941C30.723 24.7941 30.8732 24.6423 30.8732 24.4566C30.8732 21.4259 28.3811 18.9621 25.3156 18.9621C25.1278 18.9621 24.9742 19.114 24.9742 19.2996C24.9742 19.4853 25.1278 19.6371 25.3156 19.6371C28.0056 19.6371 30.1905 21.8005 30.1905 24.4566C30.1905 24.6423 30.3441 24.7941 30.5318 24.7941Z" />
<path d="M28.1046 24.4566C28.1046 24.6423 28.2582 24.7941 28.446 24.7941C28.6338 24.7941 28.7874 24.6423 28.7874 24.4566C28.7874 22.5633 27.2307 21.0243 25.3155 21.0243C25.1278 21.0243 24.9742 21.1761 24.9742 21.3618C24.9742 21.5508 25.1278 21.6993 25.3155 21.6993C26.8552 21.6993 28.1046 22.9379 28.1046 24.4566ZM25.3155 16.9C25.1278 16.9 24.9742 17.0519 24.9742 17.2375C24.9742 17.4231 25.1278 17.575 25.3155 17.575C29.1561 17.575 32.2797 20.6631 32.2797 24.4566C32.2797 24.6423 32.4299 24.7941 32.6211 24.7941C32.8088 24.7941 32.9624 24.6423 32.9624 24.4566C32.9624 20.2885 29.5316 16.9 25.3155 16.9ZM28.6508 28.0139L28.2036 28.2535C27.4492 28.6619 26.8621 29.7813 25.931 28.9375L23.5 26.5L21.3999 24.4566C20.3448 23.1235 21.5262 22.8063 21.9393 22.057L22.1817 21.6183C22.4548 21.1188 22.5538 20.5585 22.4718 19.9983C22.3933 19.438 22.1373 18.9284 21.7276 18.5234C21.2292 18.0306 20.567 17.7606 19.8603 17.7606C19.1536 17.7606 18.488 18.0306 17.9895 18.5234L17.8154 18.6989C16.8937 19.6101 16.7879 21.1795 17.515 23.1235C18.2012 24.9798 19.5838 26.9913 21.3999 28.7868C24.1685 31.5239 27.2512 33.1 29.4633 33.1C30.3372 33.1 31.078 32.8536 31.6037 32.3339L31.7813 32.1584C32.2763 31.669 32.5528 31.0143 32.5562 30.3089C32.5528 29.6204 32.2694 28.9454 31.7813 28.4628C30.9585 27.6494 29.6715 27.4671 28.6508 28.0139Z" />
    </g>
    </symbol>
  <symbol id="contact-mail" viewBox="0 0 50 50">
    <g>
<path d="M18.2591 20.6003L24.2591 24.3607C24.4607 24.4867 24.7215 24.5464 24.9839 24.5464C25.2463 24.5464 25.5071 24.4867 25.7087 24.3607L31.7087 20.6003C32.0999 20.3548 32.4695 19.4 31.7519 19.4H18.2167C17.4991 19.4 17.8687 20.3548 18.2591 20.6003ZM31.8903 22.6564L25.7087 26.4149C25.4367 26.5811 25.2463 26.6007 24.9839 26.6007C24.7215 26.6007 24.5311 26.5811 24.2591 26.4149C23.9871 26.2488 18.5527 22.9252 18.1087 22.6555C17.7967 22.4651 17.7999 22.6881 17.7999 22.8599V29.6667C17.7999 30.0587 18.2527 30.6 18.5999 30.6H31.3999C31.7471 30.6 32.1999 30.0587 32.1999 29.6667V22.8608C32.1999 22.6891 32.2031 22.466 31.8903 22.6564Z" />
    </g>
   </symbol>
   <symbol width="18" height="20" id="plane" viewBox="0 0 18 20">
    <g>
      <path d="M16.5493 0.0931417C15.8159 0.266353 15.0791 0.440377 14.805 0.917232L12.6837 5.11585L1.29333 7.8059L0.831845 9.14743L9.54799 9.96616L8.06916 13.6009L4.76362 14.3816L3.9337 15.8101L6.3184 16.0673L6.59033 17.2357C6.71216 17.6498 7.13976 17.9263 7.50475 17.8401L8.6066 17.5799L9.88387 19.7433L10.7138 18.3148L9.898 14.8098L12.2913 11.7795L16.8578 19.741L17.7787 18.7031L14.9684 6.62921L17.5491 2.73424C17.8266 2.25657 17.6456 1.47891 17.4638 0.697594C17.3737 0.310588 16.9143 0.0069429 16.5493 0.0931417Z"/>
      </g>
   </symbol>
   <symbol width="18" height="21" id="bus" viewBox="0 0 18 21">
      <g>
<path d="M4.34047 13.9485C4.34047 13.5699 4.20186 13.2467 3.92463 12.9788C3.64741 12.711 3.31289 12.5771 2.92108 12.5771C2.52927 12.5771 2.19475 12.711 1.91752 12.9788C1.6403 13.2467 1.50168 13.5699 1.50168 13.9485C1.50168 14.3271 1.6403 14.6503 1.91752 14.9181C2.19475 15.186 2.52927 15.3199 2.92108 15.3199C3.31289 15.3199 3.64741 15.186 3.92463 14.9181C4.20186 14.6503 4.34047 14.3271 4.34047 13.9485ZM15.6956 13.9485C15.6956 13.5699 15.557 13.2467 15.2798 12.9788C15.0026 12.711 14.668 12.5771 14.2762 12.5771C13.8844 12.5771 13.5499 12.711 13.2727 12.9788C12.9954 13.2467 12.8568 13.5699 12.8568 13.9485C12.8568 14.3271 12.9954 14.6503 13.2727 14.9181C13.5499 15.186 13.8844 15.3199 14.2762 15.3199C14.668 15.3199 15.0026 15.186 15.2798 14.9181C15.557 14.6503 15.6956 14.3271 15.6956 13.9485ZM15.1855 9.70563L14.3871 5.59135C14.3502 5.42706 14.267 5.29313 14.1376 5.18956C14.0082 5.08599 13.8585 5.0342 13.6885 5.0342H3.5088C3.33876 5.0342 3.18906 5.08599 3.05969 5.18956C2.93032 5.29313 2.84715 5.42706 2.81019 5.59135L2.01178 9.70563C1.97482 9.91991 2.02656 10.1092 2.16703 10.2735C2.30749 10.4378 2.48861 10.5199 2.71039 10.5199H14.4869C14.7087 10.5199 14.8898 10.4378 15.0303 10.2735C15.1707 10.1092 15.2225 9.91991 15.1855 9.70563ZM12.6794 3.14849C12.6794 3.00563 12.6277 2.88421 12.5242 2.78421C12.4207 2.68421 12.295 2.63421 12.1471 2.63421H5.05017C4.90232 2.63421 4.77664 2.68421 4.67314 2.78421C4.56965 2.88421 4.5179 3.00563 4.5179 3.14849C4.5179 3.29135 4.56965 3.41278 4.67314 3.51278C4.77664 3.61278 4.90232 3.66278 5.05017 3.66278H12.1471C12.295 3.66278 12.4207 3.61278 12.5242 3.51278C12.6277 3.41278 12.6794 3.29135 12.6794 3.14849ZM17.115 10.9163V17.377H15.6956V18.7485C15.6956 19.127 15.557 19.4503 15.2798 19.7181C15.0026 19.986 14.668 20.1199 14.2762 20.1199C13.8844 20.1199 13.5499 19.986 13.2727 19.7181C12.9954 19.4503 12.8568 19.127 12.8568 18.7485V17.377H4.34047V18.7485C4.34047 19.127 4.20186 19.4503 3.92463 19.7181C3.64741 19.986 3.31289 20.1199 2.92108 20.1199C2.52927 20.1199 2.19475 19.986 1.91752 19.7181C1.6403 19.4503 1.50168 19.127 1.50168 18.7485V17.377H0.0822906V10.9163C0.0822906 10.1163 0.174699 9.31991 0.359516 8.52706L1.50168 3.66278C1.56822 3.10563 1.92861 2.61635 2.58286 2.19492C3.23712 1.77349 4.08727 1.45564 5.13334 1.24135C6.1794 1.02706 7.33451 0.919922 8.59865 0.919922C9.8628 0.919922 11.0179 1.02706 12.064 1.24135C13.11 1.45564 13.9602 1.77349 14.6144 2.19492C15.2687 2.61635 15.6291 3.10563 15.6956 3.66278L16.86 8.52706C17.03 9.25563 17.115 10.0521 17.115 10.9163Z"/>
    </g>
   </symbol>
      <symbol width="25" height="24" id="bicycle" viewBox="0 0 25 24">
    <g>
      <path  d="M18.5284 21C17.6817 21 16.8539 20.7471 16.1499 20.2732C15.4458 19.7994 14.8971 19.1258 14.5731 18.3378C14.249 17.5498 14.1643 16.6827 14.3295 15.8462C14.4946 15.0096 14.9024 14.2412 15.5011 13.6381C16.0999 13.035 16.8627 12.6243 17.6932 12.4579C18.5236 12.2915 19.3845 12.3769 20.1667 12.7033C20.949 13.0297 21.6177 13.5824 22.0881 14.2916C22.5585 15.0008 22.8096 15.8346 22.8096 16.6875C22.8084 17.8309 22.3569 18.927 21.5543 19.7355C20.7517 20.544 19.6635 20.9988 18.5284 21V21ZM18.5284 13.875C17.9762 13.875 17.4364 14.04 16.9772 14.349C16.518 14.658 16.1602 15.0973 15.9488 15.6112C15.7375 16.1251 15.6822 16.6906 15.79 17.2362C15.8977 17.7818 16.1636 18.2829 16.5541 18.6762C16.9446 19.0696 17.4421 19.3374 17.9837 19.446C18.5253 19.5545 19.0867 19.4988 19.5969 19.2859C20.1071 19.073 20.5431 18.7126 20.8499 18.25C21.1567 17.7875 21.3205 17.2438 21.3205 16.6875C21.3196 15.9418 21.0252 15.227 20.5017 14.6997C19.9783 14.1725 19.2686 13.8759 18.5284 13.875V13.875Z"/>
      <path d="M6.24324 21C5.3965 21 4.56877 20.7471 3.86473 20.2732C3.16069 19.7994 2.61196 19.1258 2.28793 18.3378C1.96389 17.5498 1.87911 16.6827 2.0443 15.8462C2.20949 15.0096 2.61724 14.2412 3.21597 13.6381C3.81471 13.035 4.57755 12.6243 5.40802 12.4579C6.23849 12.2915 7.0993 12.3769 7.88158 12.7033C8.66387 13.0297 9.33251 13.5824 9.80293 14.2916C10.2734 15.0008 10.5244 15.8346 10.5244 16.6875C10.5232 17.8309 10.0718 18.927 9.26915 19.7355C8.46653 20.544 7.37831 20.9988 6.24324 21V21ZM6.24324 13.875C5.69102 13.875 5.1512 14.04 4.69204 14.349C4.23288 14.658 3.87501 15.0973 3.66369 15.6112C3.45236 16.1251 3.39707 16.6906 3.5048 17.2362C3.61253 17.7818 3.87845 18.2829 4.26894 18.6762C4.65942 19.0696 5.15692 19.3374 5.69853 19.446C6.24014 19.5545 6.80154 19.4988 7.31173 19.2859C7.82191 19.073 8.25798 18.7126 8.56478 18.25C8.87158 17.7875 9.03533 17.2438 9.03533 16.6875C9.03447 15.9418 8.74002 15.227 8.21659 14.6997C7.69316 14.1725 6.98348 13.8759 6.24324 13.875V13.875Z" />
      <path d="M15.364 6.00005C15.5601 6.00073 15.7544 5.96225 15.9357 5.88681C16.117 5.81138 16.2816 5.7005 16.4201 5.56058C16.5586 5.42065 16.6682 5.25447 16.7425 5.07163C16.8168 4.88879 16.8544 4.69293 16.8531 4.49536C16.8553 4.29878 16.8185 4.10374 16.745 3.92164C16.6714 3.73954 16.5626 3.57403 16.4248 3.4348C16.287 3.29558 16.1231 3.18542 15.9425 3.11077C15.762 3.03612 15.5684 2.99848 15.3733 3.00005C15.1777 2.99943 14.984 3.03762 14.8031 3.11243C14.6222 3.18725 14.4577 3.29722 14.319 3.43607C14.1803 3.57492 14.0701 3.73994 13.9947 3.92169C13.9193 4.10344 13.8801 4.29838 13.8795 4.49536C13.8789 4.69234 13.9168 4.88752 13.9911 5.06974C14.0654 5.25197 14.1745 5.41767 14.3124 5.55739C14.4502 5.69712 14.614 5.80812 14.7945 5.88407C14.9749 5.96002 15.1684 5.99943 15.364 6.00005V6.00005Z" />
      <path d="M17.5768 9.00003H15.5404C15.507 9.00004 15.4742 8.99099 15.4455 8.97384C15.4167 8.95668 15.3931 8.93205 15.3771 8.90253L13.9 6.17581C13.796 5.97318 13.646 5.79807 13.4623 5.66467C13.2785 5.53127 13.0662 5.44333 12.8424 5.40795C12.6187 5.37258 12.3898 5.39077 12.1743 5.46106C11.9589 5.53135 11.7628 5.65175 11.6022 5.81253L8.35123 9.11253C8.07812 9.39333 7.92309 9.76945 7.91846 10.1625C7.91846 10.9782 8.5048 11.2688 8.77935 11.4328C10.1056 12.2025 11.0395 12.7655 11.5519 13.0782C11.5791 13.0949 11.6017 13.1183 11.6173 13.1463C11.6329 13.1743 11.6412 13.2059 11.6412 13.238V16.478C11.6412 16.8816 11.9493 17.228 12.35 17.2482C12.4506 17.253 12.5511 17.2373 12.6455 17.2019C12.7399 17.1666 12.8261 17.1123 12.8991 17.0423C12.972 16.9724 13.0302 16.8883 13.0699 16.7951C13.1097 16.7018 13.1302 16.6015 13.1304 16.5V12.4688C13.1304 12.3497 13.1023 12.2324 13.0485 12.1264C12.9946 12.0204 12.9164 11.9289 12.8204 11.8594L11.0986 10.6121C11.077 10.5965 11.059 10.5764 11.0457 10.5532C11.0324 10.53 11.0242 10.5043 11.0217 10.4776C11.0191 10.451 11.0223 10.4241 11.0309 10.3988C11.0395 10.3734 11.0534 10.3503 11.0717 10.3308L13.0261 8.23128C13.0462 8.20968 13.071 8.19316 13.0986 8.18307C13.1262 8.17297 13.1557 8.1696 13.1849 8.17321C13.214 8.17682 13.2419 8.18731 13.2662 8.20384C13.2905 8.22037 13.3106 8.24246 13.3249 8.26831L14.3403 10.1143C14.4048 10.2313 14.4992 10.3288 14.6138 10.3966C14.7284 10.4644 14.8589 10.5001 14.9917 10.5H17.5977C17.6986 10.5002 17.7984 10.4796 17.8912 10.4397C17.9839 10.3998 18.0676 10.3413 18.1373 10.2678C18.2069 10.1942 18.261 10.1073 18.2962 10.012C18.3314 9.91685 18.3471 9.81543 18.3423 9.71394C18.3227 9.31035 17.9774 9.00003 17.5768 9.00003Z"/>
    </g>
   </symbol>
      <symbol width="21" height="24" id="run" viewBox="0 0 21 24">
    <g>
        <path d="M14.9758 5.75992C15.9264 5.75992 16.697 4.90031 16.697 3.83992C16.697 2.77954 15.9264 1.91992 14.9758 1.91992C14.0253 1.91992 13.2547 2.77954 13.2547 3.83992C13.2547 4.90031 14.0253 5.75992 14.9758 5.75992Z"/>
        <path d="M13.9234 10.5303C14.1209 10.8586 14.4043 11.1113 14.735 11.2538C15.0657 11.3964 15.4277 11.4219 15.7719 11.3271L18.6257 10.5312L18.21 8.66881L15.3563 9.46465L14.1695 7.48033C13.9159 7.05655 13.5224 6.76184 13.0748 6.66049L9.76496 5.92129C9.39468 5.83839 9.01024 5.89379 8.671 6.07893C8.33176 6.26406 8.0566 6.56863 7.888 6.94561L6.46113 10.129L8.00074 10.9882L9.42761 7.80385L11.1204 8.18209L6.74341 16.32H2.92752V18.24H6.74341C7.3441 18.24 7.90952 17.8829 8.21933 17.3079L9.86996 14.2397L14.3184 15.2323L15.8812 20.4634L17.5129 19.8557L15.9509 14.6256C15.8545 14.3045 15.684 14.0174 15.4564 13.7933C15.2289 13.5691 14.9524 13.4158 14.6549 13.3488L12.0395 12.7661L13.5645 9.93025L13.9234 10.5303Z"/>
    </g>
   </symbol>
 </svg>
